<svg width="860" height="142" viewBox="0 0 860 142" fill="none" xmlns="http://www.w3.org/2000/svg">
<path d="M0.0179383 10.277V9.34776H45.5511V138.513H72.3134C83.4644 138.513 91.8276 108.034 91.8276 108.034H92.7569L87.1814 140H0.0179383V139.071C0.0179383 139.071 19.3463 136.283 19.3463 125.318V24.2157C19.3463 13.0647 0.0179383 10.277 0.0179383 10.277ZM104.265 19.7553V17.8968C104.265 17.8968 122.292 16.7817 122.292 0.798674H123.779C123.779 16.7817 141.435 17.8968 141.435 17.8968V19.7553C141.435 19.7553 123.779 21.7997 123.779 37.9686H122.107C122.107 21.7997 104.265 19.7553 104.265 19.7553ZM99.9905 48.0045V47.0752L137.718 57.1111V140H99.9905V139.071C99.9905 139.071 111.513 136.283 111.513 125.504V61.5715C111.513 50.7922 99.9905 48.0045 99.9905 48.0045ZM180.331 44.845V39.4554C180.331 22.7289 194.642 8.0468 209.138 8.0468C227.537 8.0468 233.484 16.5959 233.484 31.4638V45.9601H206.536V140H159.144V139.071C159.144 139.071 180.331 141.858 180.331 117.884V45.9601H165.277V44.845H180.331ZM206.536 39.4554V44.845H212.111C216.572 44.1016 231.44 41.128 231.44 31.4638C231.44 19.3836 227.909 11.0204 215.828 11.0204C206.35 11.0204 206.536 17.8968 206.536 39.4554ZM321.615 106.175H332.766C327.934 128.106 310.278 141.858 285.746 141.858C256.753 141.858 237.425 121.787 237.425 93.5376C237.425 64.5451 260.284 45.2167 286.861 45.2167C309.349 45.2167 328.863 56.7394 330.907 89.6348H261.399C261.399 90.9357 261.214 92.2367 261.214 93.5376C261.214 117.884 268.462 140 288.162 140C306.003 140 323.659 121.787 321.615 106.175ZM261.585 87.7763H307.304C310.092 65.1026 299.127 47.0752 286.861 47.0752C276.267 47.0752 263.258 63.43 261.585 87.7763ZM352.135 43.3582C352.135 20.127 369.604 8.0468 396.553 8.0468C422.943 8.0468 441.714 24.9591 441.342 47.0752V61.1998H412.164V60.2705C412.164 60.2705 424.988 58.2262 426.289 46.7035C428.519 28.4903 418.111 10.8345 396.553 10.8345C380.012 10.8345 361.427 19.3836 361.427 32.0214C361.427 72.7225 446.36 50.6064 446.36 103.388C446.36 126.619 423.129 141.858 396.367 141.858C372.021 141.858 347.86 130.336 347.674 103.573V93.9093H399.34V94.8386C399.34 94.8386 365.887 95.582 364.958 103.573C363.286 119.928 373.693 138.142 396.739 138.142C414.208 138.142 432.05 127.362 432.05 108.777C432.05 75.5102 352.135 96.697 352.135 43.3582ZM455.139 16.41V15.4808L492.866 44.845H514.425V46.146H492.866V110.45C492.866 130.522 497.327 138.885 506.805 138.885C517.213 138.885 525.576 131.823 525.576 118.441C525.576 107.105 499.371 104.874 499.371 104.874V103.945H527.62V118.441C527.62 134.239 517.584 141.858 498.628 141.858C478.184 141.858 467.405 131.079 466.661 112.494V111.751C466.661 111.379 466.661 110.822 466.661 110.45V46.146H452.165V44.845H466.661V35.5525C466.661 24.7733 455.139 16.41 455.139 16.41ZM530.9 93.5376C530.9 64.5451 550.228 45.2167 579.221 45.2167C608.214 45.2167 627.542 64.5451 627.542 93.5376C627.542 122.53 608.214 141.858 579.221 141.858C550.228 141.858 530.9 122.53 530.9 93.5376ZM557.105 93.5376C557.105 118.627 564.911 140 579.221 140C593.531 140 601.151 118.627 601.151 93.5376C601.151 68.4479 593.531 47.0752 579.221 47.0752C566.026 47.0752 557.105 66.0319 557.105 93.5376ZM722.893 106.175H734.23C729.398 128.106 711.742 141.858 687.21 141.858C658.217 141.858 638.889 122.53 638.889 93.5376C638.889 64.5451 659.332 45.2167 688.325 45.2167C710.813 45.2167 725.495 56.9252 730.141 75.3243H706.352C710.813 59.8988 704.866 47.0752 688.325 47.0752C672.528 47.0752 665.094 66.0319 665.094 93.5376C665.094 118.627 672.899 139.071 694.086 139.071C710.813 139.071 724.38 126.247 722.893 106.175ZM743.749 1.17037V0.241122H781.476V95.3961L830.169 58.5979C840.762 50.6064 824.965 48.0045 824.965 48.0045V47.0752H848.196L808.424 77.1828L859.719 140H794.486V139.071C794.486 139.071 822.735 136.469 813.814 125.504L787.238 92.9801L781.476 97.4404V140H744.864V139.071C744.864 139.071 755.271 136.283 755.271 125.504V14.7374C755.271 3.95811 743.749 1.17037 743.749 1.17037Z" fill="#D3FFF2"/>
</svg>
