<svg width="620" height="103" viewBox="0 0 620 103" fill="none" xmlns="http://www.w3.org/2000/svg">
<path d="M0.611393 7.63881V6.97004H33.3814V99.93H52.6422C60.6675 99.93 66.6865 77.9941 66.6865 77.9941H67.3553L63.3426 101H0.611393V100.331C0.611393 100.331 14.5219 98.3249 14.5219 90.4333V17.6705C14.5219 9.64514 0.611393 7.63881 0.611393 7.63881ZM75.6377 14.4603V13.1228C75.6377 13.1228 88.6119 12.3202 88.6119 0.817294H89.682C89.682 12.3202 102.389 13.1228 102.389 13.1228V14.4603C102.389 14.4603 89.682 15.9316 89.682 27.5683H88.4782C88.4782 15.9316 75.6377 14.4603 75.6377 14.4603ZM72.5613 34.7911V34.1224L99.7136 41.3451V101H72.5613V100.331C72.5613 100.331 80.8541 98.3249 80.8541 90.5671V44.5553C80.8541 36.7975 72.5613 34.7911 72.5613 34.7911ZM130.382 32.5173V28.6384C130.382 16.6004 140.681 6.03375 151.114 6.03375C164.356 6.03375 168.636 12.1865 168.636 22.8869V33.3198H149.242V101H115.134V100.331C115.134 100.331 130.382 102.338 130.382 85.0831V33.3198H119.548V32.5173H130.382ZM149.242 28.6384V32.5173H153.254C156.465 31.9823 167.165 29.8422 167.165 22.8869C167.165 14.1928 164.624 8.17384 155.929 8.17384C149.108 8.17384 149.242 13.1228 149.242 28.6384ZM232.063 76.6565H240.089C236.611 92.4397 223.904 102.338 206.249 102.338C185.383 102.338 171.472 87.892 171.472 67.5612C171.472 46.6954 187.924 32.7848 207.051 32.7848C223.236 32.7848 237.28 41.0776 238.751 64.7523H188.727C188.727 65.6886 188.593 66.6249 188.593 67.5612C188.593 85.0831 193.809 101 207.987 101C220.828 101 233.535 87.892 232.063 76.6565ZM188.86 63.4148H221.764C223.771 47.0966 215.879 34.1224 207.051 34.1224C199.427 34.1224 190.064 45.8928 188.86 63.4148ZM254.029 31.4472C254.029 14.7278 266.602 6.03375 285.996 6.03375C304.989 6.03375 318.499 18.2055 318.231 34.1224V44.2878H297.231V43.619C297.231 43.619 306.461 42.1477 307.397 33.8548C309.002 20.7468 301.512 8.04007 285.996 8.04007C274.092 8.04007 260.716 14.1928 260.716 23.2882C260.716 52.5806 321.842 36.6637 321.842 74.6502C321.842 91.3696 305.123 102.338 285.862 102.338C268.34 102.338 250.952 94.0447 250.818 74.784V67.8287H288.002V68.4975C288.002 68.4975 263.926 69.0325 263.258 74.784C262.054 86.5544 269.544 99.6624 286.13 99.6624C298.703 99.6624 311.543 91.9046 311.543 78.5291C311.543 54.5869 254.029 69.835 254.029 31.4472ZM328.16 12.0527V11.384L355.313 32.5173H370.828V33.4536H355.313V79.7329C355.313 94.1785 358.523 100.197 365.344 100.197C372.835 100.197 378.854 95.1148 378.854 85.4844C378.854 77.3253 359.994 75.7203 359.994 75.7203V75.0515H380.325V85.4844C380.325 96.8536 373.102 102.338 359.459 102.338C344.746 102.338 336.988 94.5797 336.453 81.2042V80.6692C336.453 80.4017 336.453 80.0004 336.453 79.7329V33.4536H326.02V32.5173H336.453V25.8295C336.453 18.0717 328.16 12.0527 328.16 12.0527ZM382.685 67.5612C382.685 46.6954 396.596 32.7848 417.462 32.7848C438.328 32.7848 452.238 46.6954 452.238 67.5612C452.238 88.427 438.328 102.338 417.462 102.338C396.596 102.338 382.685 88.427 382.685 67.5612ZM401.545 67.5612C401.545 85.6181 407.163 101 417.462 101C427.761 101 433.245 85.6181 433.245 67.5612C433.245 49.5042 427.761 34.1224 417.462 34.1224C407.965 34.1224 401.545 47.7654 401.545 67.5612ZM520.862 76.6565H529.021C525.543 92.4397 512.837 102.338 495.181 102.338C474.315 102.338 460.405 88.427 460.405 67.5612C460.405 46.6954 475.118 32.7848 495.983 32.7848C512.168 32.7848 522.735 41.2114 526.078 54.4532H508.958C512.168 43.3515 507.888 34.1224 495.983 34.1224C484.614 34.1224 479.264 47.7654 479.264 67.5612C479.264 85.6181 484.882 100.331 500.13 100.331C512.168 100.331 521.932 91.1021 520.862 76.6565ZM535.872 1.0848V0.416025H563.024V68.8987L598.068 42.4152C605.692 36.6637 594.323 34.7911 594.323 34.7911V34.1224H611.042L582.419 55.7907L619.335 101H572.387V100.331C572.387 100.331 592.718 98.4586 586.298 90.5671L567.171 67.1599L563.024 70.37V101H536.674V100.331C536.674 100.331 544.165 98.3249 544.165 90.5671V10.8489C544.165 3.09113 535.872 1.0848 535.872 1.0848Z" fill="#135550"/>
</svg>
